<?xml version="1.0" encoding="utf-8"?>
<!-- Generator: Adobe Illustrator 24.2.0, SVG Export Plug-In . SVG Version: 6.00 Build 0)  -->
<svg version="1.1" id="Layer_1" xmlns="http://www.w3.org/2000/svg" xmlns:xlink="http://www.w3.org/1999/xlink" x="0px" y="0px"
	 viewBox="0 0 43.5 43.5" style="enable-background:new 0 0 43.5 43.5;" xml:space="preserve">
<style type="text/css">
	.st0{fill:#213A71;}
	.st1{fill:#223971;}
	.st2{fill:#233871;}
	.st3{fill:#F36C24;}
</style>
<g id="Group_1053">
	<g id="Group_1043">
		<path id="Path_454" class="st0" d="M-133.9,56.5v-2.2h-2.5v2.2h-0.5v-4.8h0.5v2.1h2.5v-2.1h0.5v4.8H-133.9z"/>
		<path id="Path_455" class="st0" d="M-132.6,56.5h0.5V53h-0.5V56.5z M-132.6,52.5h0.5v-0.8h-0.5V52.5z"/>
	</g>
	<g id="Group_1052">
		<g id="Group_1050">
			<path id="Path_456" class="st0" d="M-121,53.4v3.1h-0.5v-3.1h-0.7V53h0.7v-1.2h0.5V53h0.8v0.4H-121z"/>
			<g id="Group_1049">
				<path id="Path_457" class="st0" d="M-55.9,53.4v3.1h-0.5v-3.1h-0.7V53h0.7v-1.2h0.5V53h0.8v0.4H-55.9z"/>
				<g id="Group_1048">
					<g id="Group_1047">
						<path id="Path_458" class="st0" d="M-61.7,56.5l-1.2-1.4l-0.6,0.7v0.7h-0.5v-4.8h0.5v3.4h0l1.6-2.2h0.6l-1.4,1.8l1.5,1.7
							L-61.7,56.5z"/>
						<g id="Group_1046">
							<g id="Group_1044">
								<path id="Path_459" class="st0" d="M-76.4,55.4c-0.4,1-1.6,1.4-2.6,0.9c-0.2-0.1-0.4-0.2-0.5-0.3c-0.7-0.7-0.7-1.9,0-2.6
									c0,0,0,0,0,0c0.4-0.4,0.8-0.5,1.3-0.5c0.4,0,0.7,0.1,1.1,0.3c0.3,0.2,0.6,0.5,0.7,0.8h-0.5c-0.2-0.5-0.7-0.8-1.2-0.7
									c-0.4,0-0.8,0.1-1,0.4c-0.3,0.3-0.4,0.6-0.4,1c0,0.8,0.6,1.4,1.4,1.5c0,0,0,0,0,0c0.5,0,1-0.2,1.2-0.7L-76.4,55.4z"/>
								<path id="Path_460" class="st0" d="M-73.1,53.7c-0.3-0.3-0.6-0.4-1-0.4c-0.4,0-0.8,0.1-1,0.4c-0.3,0.3-0.4,0.7-0.4,1
									c0,0.4,0.1,0.8,0.4,1c0.3,0.3,0.6,0.4,1,0.4c0.4,0,0.7-0.1,1-0.4c0.3-0.3,0.4-0.6,0.4-1C-72.7,54.3-72.8,54-73.1,53.7
									 M-72.7,56.5v-0.6h0c-0.3,0.5-0.8,0.7-1.4,0.7c-0.5,0-1-0.2-1.3-0.5c-0.7-0.7-0.7-1.9,0-2.6c0,0,0,0,0,0
									c0.4-0.3,0.8-0.5,1.3-0.5c0.6,0,1.1,0.2,1.4,0.7h0v-0.6h0.5v3.5L-72.7,56.5z"/>
								<path id="Path_461" class="st0" d="M-66.8,56.5v-2c0-0.3-0.1-0.6-0.2-0.8c-0.3-0.4-0.9-0.5-1.4-0.1c0,0-0.1,0.1-0.1,0.1
									c-0.2,0.2-0.2,0.5-0.2,0.8v2h-0.5v-2c0-0.3-0.1-0.6-0.2-0.8c-0.3-0.4-0.9-0.5-1.4-0.1c0,0-0.1,0.1-0.1,0.1
									c-0.2,0.2-0.2,0.5-0.2,0.8v2h-0.4V53h0.4v0.4c0.2-0.3,0.6-0.5,1-0.5c0.5,0,1,0.2,1.2,0.7c0.4-0.7,1.3-0.9,1.9-0.5
									c0.1,0.1,0.2,0.1,0.3,0.2c0.3,0.3,0.4,0.7,0.4,1.1v2.1L-66.8,56.5z"/>
							</g>
							<g id="Group_1045">
								<path id="Path_462" class="st0" d="M-82.7,56.5h0.5V53h-0.5V56.5z M-82.7,52.5h0.5v-0.8h-0.5V52.5z"/>
								<path id="Path_463" class="st0" d="M-117.2,56.5v-1.9c0-0.2,0-0.4-0.1-0.5c0-0.2-0.1-0.3-0.3-0.4c-0.4-0.4-1.1-0.4-1.5,0
									c-0.1,0.1-0.2,0.3-0.3,0.4c0,0.2-0.1,0.3-0.1,0.5v2h-0.5v-4.8h0.5v1.7h0c0.2-0.4,0.7-0.6,1.1-0.5c0.4,0,0.9,0.1,1.2,0.5
									c0.3,0.3,0.4,0.8,0.4,1.2v1.9L-117.2,56.5z"/>
								<path id="Path_464" class="st0" d="M-114.6,56.9h0.5v0.8h-0.5V56.9z M-113,53.5v3h-0.4v-0.5h0c-0.1,0.2-0.3,0.4-0.5,0.5
									c-0.2,0.1-0.4,0.2-0.7,0.2c-0.5,0-0.9-0.2-1.2-0.5c-0.1-0.2-0.2-0.3-0.2-0.5c0-0.2-0.1-0.4-0.1-0.6V53h0.5v1.9
									c0,0.3,0.1,0.6,0.2,0.9c0.2,0.3,0.5,0.4,0.8,0.4c0.3,0,0.5-0.1,0.7-0.3c0.1-0.1,0.2-0.3,0.3-0.5c0.1-0.2,0.1-0.4,0.1-0.6V53
									h0.5v0.1l0,0c0.1-0.1,0.1-0.1,0.1-0.2h-0.2v-0.6h0.6v0.6c0,0.1,0,0.2-0.1,0.3c0,0.1-0.1,0.1-0.1,0.2c0,0-0.1,0.1-0.1,0.1
									C-112.8,53.4-112.9,53.4-113,53.5L-113,53.5z"/>
								<path id="Path_465" class="st0" d="M-108.7,55.4c-0.4,1-1.6,1.4-2.6,0.9c-0.2-0.1-0.4-0.2-0.5-0.3c-0.7-0.7-0.7-1.9,0-2.6
									c0,0,0,0,0,0c0.4-0.4,0.8-0.5,1.3-0.5c0.4,0,0.7,0.1,1.1,0.3c0.3,0.2,0.6,0.5,0.7,0.8h-0.5c-0.2-0.5-0.7-0.8-1.2-0.7
									c-0.4,0-0.8,0.1-1,0.4c-0.3,0.3-0.4,0.6-0.4,1c0,0.8,0.6,1.4,1.4,1.5c0,0,0,0,0,0c0.5,0,1-0.2,1.2-0.7L-108.7,55.4z"/>
								<path id="Path_466" class="st0" d="M-103.9,56.5v-1.9c0-0.2,0-0.4-0.1-0.5c0-0.2-0.1-0.3-0.3-0.4c-0.4-0.4-1.1-0.4-1.5,0
									c-0.1,0.1-0.2,0.3-0.3,0.4c0,0.2-0.1,0.3-0.1,0.5v2h-0.5v-4.8h0.5v1.7h0c0.2-0.4,0.7-0.6,1.1-0.5c0.4,0,0.9,0.1,1.2,0.5
									c0.3,0.3,0.4,0.8,0.4,1.2v1.9L-103.9,56.5z"/>
								<path id="Path_467" class="st0" d="M-101.3,52.5l-0.2-0.4l1.3-0.7l0.2,0.4L-101.3,52.5z M-100,53.7c-0.3-0.3-0.6-0.4-1-0.4
									c-0.4,0-0.7,0.2-1,0.4c-0.3,0.3-0.4,0.6-0.4,1c0,0.4,0.1,0.7,0.4,1c0.3,0.3,0.6,0.4,1,0.4c0.4,0,0.7-0.2,1-0.4
									c0.3-0.3,0.4-0.6,0.4-1C-99.6,54.3-99.8,54-100,53.7 M-99.7,56c-0.7,0.7-1.9,0.7-2.6,0c0,0,0,0,0,0
									c-0.4-0.3-0.6-0.8-0.5-1.3c0-0.5,0.2-1,0.5-1.3c0.3-0.4,0.8-0.6,1.3-0.6c1,0,1.8,0.8,1.8,1.8C-99.2,55.2-99.4,55.7-99.7,56"
									/>
								<path id="Path_468" class="st0" d="M-95.9,53.7c-0.3-0.3-0.6-0.4-1-0.4c-0.4,0-0.8,0.1-1,0.4c-0.3,0.3-0.4,0.7-0.4,1
									c0,0.4,0.1,0.8,0.4,1c0.3,0.3,0.6,0.4,1,0.4c0.4,0,0.7-0.1,1-0.4c0.3-0.3,0.4-0.6,0.4-1C-95.5,54.3-95.6,54-95.9,53.7
									 M-95.5,56.5v-0.6h0c-0.3,0.5-0.8,0.7-1.4,0.7c-0.5,0-1-0.2-1.3-0.5c-0.7-0.7-0.7-1.9,0-2.6c0,0,0,0,0,0
									c0.4-0.3,0.8-0.5,1.3-0.5c0.6,0,1.1,0.2,1.4,0.7h0v-0.6h0.5v3.5L-95.5,56.5z"/>
								<path id="Path_469" class="st0" d="M-87.9,56.5v-2c0-0.3-0.1-0.6-0.2-0.8c-0.3-0.4-0.9-0.5-1.4-0.1c0,0-0.1,0.1-0.1,0.1
									c-0.2,0.2-0.2,0.5-0.2,0.8v2h-0.5v-2c0-0.3-0.1-0.6-0.2-0.8c-0.3-0.4-0.9-0.5-1.4-0.1c0,0-0.1,0.1-0.1,0.1
									c-0.2,0.2-0.2,0.5-0.2,0.8v2h-0.4V53h0.4v0.4c0.2-0.3,0.6-0.5,1-0.5c0.5,0,1,0.2,1.2,0.7c0.4-0.7,1.3-0.9,1.9-0.5
									c0.1,0.1,0.2,0.1,0.3,0.2c0.3,0.3,0.4,0.7,0.4,1.1v2.1L-87.9,56.5z"/>
								<path id="Path_470" class="st0" d="M-85.3,56.9h0.5v0.8h-0.5V56.9z M-84.1,53.7c-0.3-0.3-0.6-0.4-1-0.4
									c-0.4,0-0.7,0.2-1,0.4c-0.3,0.3-0.4,0.6-0.4,1c0,0.4,0.1,0.7,0.4,1c0.5,0.5,1.4,0.6,1.9,0c0,0,0,0,0.1-0.1
									c0.3-0.3,0.4-0.6,0.4-1C-83.7,54.3-83.8,54-84.1,53.7 M-83.8,56c-0.7,0.7-1.9,0.7-2.6,0c0,0,0,0,0,0
									c-0.4-0.3-0.6-0.8-0.5-1.3c0-0.5,0.2-1,0.5-1.3c0.3-0.4,0.8-0.6,1.3-0.6c1,0,1.8,0.8,1.8,1.8C-83.2,55.2-83.4,55.7-83.8,56"
									/>
							</g>
						</g>
					</g>
					<path id="Path_471" class="st0" d="M-58.4,51.9l-0.2-0.4l1.3-0.7l0.2,0.4L-58.4,51.9z M-58.6,52.4l-0.6-0.5l-0.6,0.5h-0.6
						l0.9-0.8h0.4l0.9,0.8H-58.6z M-57.8,54.5c-0.1-0.3-0.2-0.6-0.5-0.9c-0.5-0.5-1.3-0.5-1.8,0c-0.3,0.2-0.4,0.5-0.5,0.9H-57.8z
						 M-57.3,54.9h-3.2c0,0.3,0.2,0.7,0.4,0.9c0.2,0.2,0.6,0.4,0.9,0.4c0.3,0,0.5-0.1,0.8-0.2c0.2-0.1,0.4-0.4,0.5-0.6h0.5
						c-0.1,0.4-0.4,0.7-0.7,0.9c-0.8,0.6-2,0.4-2.6-0.4c-0.2-0.3-0.3-0.7-0.3-1.1c0-0.5,0.2-1,0.5-1.3c0.7-0.7,1.8-0.7,2.5,0
						c0,0,0,0,0.1,0.1c0.3,0.4,0.5,0.8,0.5,1.3L-57.3,54.9z"/>
				</g>
			</g>
		</g>
		<g id="Group_1051">
			<path id="Path_472" class="st0" d="M-130,56.9h0.5v0.8h-0.5V56.9z M-129.2,52.4l-0.6-0.5l-0.6,0.5h-0.6l0.9-0.8h0.4l0.9,0.8
				H-129.2z M-128.4,54.5c-0.1-0.3-0.2-0.6-0.5-0.9c-0.5-0.5-1.3-0.5-1.8,0c-0.3,0.2-0.4,0.5-0.5,0.9H-128.4z M-127.9,54.9h-3.2
				c0,0.3,0.2,0.7,0.4,0.9c0.2,0.2,0.6,0.4,0.9,0.4c0.3,0,0.5-0.1,0.8-0.2c0.2-0.1,0.4-0.4,0.5-0.6h0.5c-0.1,0.4-0.4,0.7-0.7,0.9
				c-0.8,0.6-2,0.4-2.6-0.4c-0.2-0.3-0.3-0.7-0.3-1.1c0-0.5,0.2-1,0.5-1.3c0.7-0.7,1.8-0.7,2.5,0c0,0,0,0,0.1,0.1
				c0.4,0.4,0.5,0.8,0.5,1.3L-127.9,54.9z"/>
			<path id="Path_473" class="st0" d="M-124.7,56.5v-1.9c0-0.2,0-0.4-0.1-0.5c0-0.2-0.1-0.3-0.3-0.4c-0.4-0.4-1.1-0.4-1.5,0
				c-0.1,0.1-0.2,0.3-0.3,0.4c0,0.2-0.1,0.3-0.1,0.5v2h-0.5V53h0.5v0.4h0c0.2-0.4,0.7-0.6,1.1-0.5c0.4,0,0.9,0.1,1.2,0.5
				c0.3,0.3,0.4,0.8,0.4,1.2v1.9L-124.7,56.5z"/>
		</g>
	</g>
</g>
<path id="Path_474" class="st1" d="M-162.2,39.4V43c0.1,0,0.2,0,0.2,0c0.1,0,0.2,0,0.2,0c0.9,0,1.4-0.4,1.4-1.1v-1.5
	c0-0.4-0.1-0.7-0.4-0.9C-161.2,39.5-161.7,39.4-162.2,39.4 M-168.3,36.6h8c1.3,0,2.6,0.2,3.7,0.8c1.1,0.5,1.8,1.5,1.8,2.7v2.2
	c0,2.3-1.7,3.5-5.2,3.5h-2.2c0,0.1,0,0.2,0,0.3s0,0.3,0,0.3c0,0.3,0.2,0.6,0.5,0.7v2.3h-6.7v-2.3c0.4-0.1,0.7-0.5,0.6-0.9v-6.3
	c0-0.4-0.2-0.8-0.6-0.8L-168.3,36.6z"/>
<path id="Path_475" class="st1" d="M-153.5,36.6h6.4v2.3c-0.4,0.3-0.5,0.8-0.5,1.3v1.4h1.9v-1.9c0-0.3-0.2-0.6-0.5-0.8v-2.3h6.6v2.3
	c-0.4,0.3-0.6,0.7-0.6,1.2v5.6c0,0.8,0.2,1.3,0.6,1.6v2.2h-6.6v-2.2c0.3-0.2,0.5-0.5,0.5-1.1V44h-1.9v1.8c-0.1,0.5,0.1,1,0.5,1.4
	v2.2h-6.4v-2.2c0.4-0.3,0.7-0.7,0.6-1.2v-5.8c0.1-0.5-0.2-1.1-0.6-1.4V36.6z"/>
<path id="Path_476" class="st1" d="M-137.6,36.6h12.9V41h-5.1v-0.8c0-0.5-0.5-0.8-1.4-0.8h-0.5v2.3h3.5v2.5h-3.5v2.5
	c0.1,0,0.1,0,0.2,0c0.1,0,0.1,0,0.2,0c1,0,1.5-0.3,1.5-1v-0.9h5.1v4.6h-12.9v-2.3c0.3-0.1,0.5-0.4,0.5-0.7v-6.5
	c0-0.4-0.1-0.8-0.5-1.1V36.6z"/>
<path id="Path_477" class="st1" d="M-123.1,36.6h5.8l3,5.8v-2.7c0-0.3-0.1-0.6-0.4-0.8v-2.3h5.5v2.3c-0.4,0.3-0.7,0.8-0.6,1.3v9.3
	h-5.2l-3.3-5.8v2c0,0.7,0.2,1.2,0.6,1.3v2.5h-5.3v-2.3c0.4-0.2,0.7-0.6,0.6-1v-6.3c0-0.4-0.2-0.8-0.6-0.9V36.6z"/>
<path id="Path_478" class="st1" d="M-107.5,36.6h6.8v2.3c-0.4,0.3-0.7,0.8-0.6,1.3v5.7c0,0.3,0,0.6,0.1,0.9c0.1,0.2,0.3,0.4,0.5,0.5
	v2.2h-6.8v-2.2c0.4-0.2,0.6-0.6,0.6-1.1v-6.4c0-0.4-0.2-0.8-0.6-0.9V36.6z"/>
<path id="Path_479" class="st1" d="M-98.8,36.6h6.4v2.4c-0.4,0.4-0.5,0.9-0.5,1.4v1.4l1.4-1.7c0.4-0.4,0.6-0.9,0.6-1.5v-2h5.8v2.4
	c-0.4,0.1-0.7,0.3-0.9,0.6c-0.3,0.3-0.6,0.6-0.8,1l-1.5,1.9L-86,46c0.2,0.4,0.4,0.6,0.5,0.7c0.2,0.2,0.5,0.4,0.8,0.5v2.2h-6.1v-1.6
	c0-0.5-0.2-1.1-0.5-1.5l-1.6-2.3v1.8c-0.1,0.5,0.1,1,0.5,1.4v2.2h-6.4v-2.2c0.4-0.1,0.6-0.6,0.6-1.3v-5.4c0-0.8-0.2-1.3-0.6-1.5
	L-98.8,36.6z"/>
<path id="Path_480" class="st1" d="M-76.4,43.5l-0.8-3.7l-0.8,3.7H-76.4z M-72.9,36.6l2.4,9.3c0.1,0.6,0.5,1,1,1.3v2.2h-6.8v-2.2
	c0.4-0.3,0.6-0.7,0.6-1.2h-2.6c0,0.5,0.2,0.9,0.6,1.2v2.2h-5.9v-2.3c0.4-0.3,0.7-0.8,0.8-1.3l2.2-9.2H-72.9z"/>
<path id="Path_481" class="st1" d="M-61.7,43.5l-0.8-3.7l-0.8,3.7H-61.7z M-58.3,36.6l2.4,9.3c0.1,0.6,0.5,1,1,1.3v2.2h-6.8v-2.2
	c0.4-0.3,0.6-0.7,0.6-1.2h-2.6c0,0.5,0.2,0.9,0.6,1.2v2.2H-69v-2.3c0.4-0.3,0.7-0.8,0.8-1.3l2.2-9.2H-58.3z"/>
<path id="Path_482" class="st2" d="M-91.4,15.1c-7.5,9-20.9,10.2-30,2.7c-7.7-6.4-9.9-17.4-5.2-26.3c-8.8,8.2-9.3,21.9-1.1,30.7
	c4.1,4.4,9.9,6.9,15.9,6.9c0.4,0,0.8,0,1.1,0c0.1,0,0.2,0,0.4,0c0.2,0,0.5,0,0.7-0.1C-101.4,28.2-94.3,22.8-91.4,15.1"/>
<path id="Path_483" class="st2" d="M-107.4,19.7c-0.7,0.4-1.4,0.7-2.2,1h0c0,0-0.1,0-0.1,0c0.7,0.1,1.3,0.1,2,0.1
	c6.5,0,12.7-2.9,16.8-7.9c0,0,0.2-0.2,0.2-0.2C-90.3,11-90,9.2-90,7.3c0-1.2-0.1-2.4-0.3-3.5c0-0.2-0.1-0.3-0.1-0.5
	c0-0.1-0.1-0.3-0.1-0.4c-0.9-4.3-3.1-8.1-6.2-11.1C-92.8,2.4-97.4,14.4-107.4,19.7"/>
<path id="Path_484" class="st3" d="M-111.7-10.8c5.8,0,11.3,2.7,14.8,7.4c-2.7-8.2-11.5-12.7-19.6-10c-4.7,1.5-8.5,5.3-10,10
	C-123.1-8.1-117.6-10.8-111.7-10.8"/>
<g>
	<path id="Path_482_1_" class="st2" d="M42.1,29.4c-7.5,9-20.9,10.2-30,2.7C4.4,25.7,2.2,14.7,6.9,5.8C-1.9,14-2.3,27.8,5.8,36.5
		c4.1,4.4,9.9,6.9,15.9,6.9c0.4,0,0.8,0,1.1,0c0.1,0,0.2,0,0.4,0c0.2,0,0.5,0,0.7-0.1C32.2,42.5,39.2,37.1,42.1,29.4"/>
	<path id="Path_483_1_" class="st2" d="M26.1,34c-0.7,0.4-1.4,0.7-2.2,1h0c0,0-0.1,0-0.1,0c0.7,0.1,1.3,0.1,2,0.1
		c6.5,0,12.7-2.9,16.8-7.9c0,0,0.2-0.2,0.2-0.2c0.4-1.8,0.6-3.6,0.6-5.5c0-1.2-0.1-2.4-0.3-3.5c0-0.2-0.1-0.3-0.1-0.5
		c0-0.1-0.1-0.3-0.1-0.4C42.1,12.9,39.9,9,36.8,6C40.7,16.7,36.2,28.6,26.1,34"/>
	<path id="Path_484_1_" class="st3" d="M21.8,3.4c5.8,0,11.3,2.7,14.8,7.4C33.9,2.6,25.1-1.9,17,0.8c-4.7,1.5-8.5,5.3-10,10
		C10.5,6.1,15.9,3.4,21.8,3.4"/>
</g>
</svg>
